<mxfile host="65bd71144e">
    <diagram id="jtrCoqz8Kd5AbmlCqiaP" name="Page-1">
        <mxGraphModel dx="1368" dy="938" grid="1" gridSize="10" guides="1" tooltips="1" connect="1" arrows="1" fold="1" page="1" pageScale="1" pageWidth="850" pageHeight="1100" math="0" shadow="0">
            <root>
                <mxCell id="0"/>
                <mxCell id="1" parent="0"/>
                <mxCell id="6" value="" style="edgeStyle=none;html=1;" edge="1" parent="1" source="2" target="5">
                    <mxGeometry relative="1" as="geometry"/>
                </mxCell>
                <mxCell id="2" value="&lt;font color=&quot;#ffffff&quot; style=&quot;font-size: 15px;&quot;&gt;initial&lt;/font&gt;" style="ellipse;whiteSpace=wrap;html=1;" vertex="1" parent="1">
                    <mxGeometry x="80" y="50" width="100" height="70" as="geometry"/>
                </mxCell>
                <mxCell id="9" value="" style="edgeStyle=none;html=1;fontFamily=Courier New;fontSize=15;fontColor=#FFFFFF;" edge="1" parent="1" source="5" target="8">
                    <mxGeometry relative="1" as="geometry"/>
                </mxCell>
                <mxCell id="14" value="" style="html=1;fontFamily=Helvetica;fontSize=15;fontColor=#FFFFFF;" edge="1" parent="1" source="8" target="13">
                    <mxGeometry relative="1" as="geometry"/>
                </mxCell>
                <mxCell id="18" value="write_submodule.done" style="edgeLabel;html=1;align=center;verticalAlign=middle;resizable=0;points=[];fontSize=15;fontFamily=Helvetica;fontColor=#FFFFFF;" vertex="1" connectable="0" parent="14">
                    <mxGeometry x="-0.245" y="-2" relative="1" as="geometry">
                        <mxPoint as="offset"/>
                    </mxGeometry>
                </mxCell>
                <mxCell id="8" value="&lt;font color=&quot;#ffffff&quot; style=&quot;font-size: 15px;&quot;&gt;wait_submodule_return&lt;/font&gt;" style="ellipse;whiteSpace=wrap;html=1;" vertex="1" parent="1">
                    <mxGeometry x="507.5" y="265" width="175" height="105" as="geometry"/>
                </mxCell>
                <mxCell id="10" style="edgeStyle=orthogonalEdgeStyle;html=1;fontFamily=Courier New;fontSize=15;fontColor=#FFFFFF;curved=1;" edge="1" parent="1" source="8" target="8">
                    <mxGeometry relative="1" as="geometry">
                        <Array as="points">
                            <mxPoint x="450" y="355"/>
                        </Array>
                    </mxGeometry>
                </mxCell>
                <mxCell id="11" value="&lt;font face=&quot;Helvetica&quot;&gt;write_submodule.done'&lt;/font&gt;" style="edgeLabel;html=1;align=center;verticalAlign=middle;resizable=0;points=[];fontSize=15;fontFamily=Courier New;fontColor=#FFFFFF;" vertex="1" connectable="0" parent="10">
                    <mxGeometry x="-0.4643" y="14" relative="1" as="geometry">
                        <mxPoint x="-59" y="21" as="offset"/>
                    </mxGeometry>
                </mxCell>
                <mxCell id="17" value="" style="html=1;fontFamily=Helvetica;fontSize=15;fontColor=#FFFFFF;" edge="1" parent="1" source="13" target="16">
                    <mxGeometry relative="1" as="geometry"/>
                </mxCell>
                <mxCell id="20" value="" style="edgeStyle=orthogonalEdgeStyle;html=1;fontFamily=Helvetica;fontSize=15;fontColor=#FFFFFF;curved=1;" edge="1" parent="1" source="16" target="5">
                    <mxGeometry relative="1" as="geometry">
                        <mxPoint x="595" y="825" as="targetPoint"/>
                        <Array as="points">
                            <mxPoint x="290" y="693"/>
                            <mxPoint x="290" y="130"/>
                        </Array>
                    </mxGeometry>
                </mxCell>
                <mxCell id="22" value="i_lt_arr_size" style="edgeLabel;html=1;align=center;verticalAlign=middle;resizable=0;points=[];fontSize=15;fontFamily=Helvetica;fontColor=#FFFFFF;" vertex="1" connectable="0" parent="20">
                    <mxGeometry x="-0.495" relative="1" as="geometry">
                        <mxPoint x="90" y="-21" as="offset"/>
                    </mxGeometry>
                </mxCell>
                <mxCell id="26" value="" style="html=1;fontFamily=Helvetica;fontSize=15;fontColor=#FFFFFF;" edge="1" parent="1" source="16" target="25">
                    <mxGeometry relative="1" as="geometry"/>
                </mxCell>
                <mxCell id="27" value="i_lt_arr_size'" style="edgeLabel;html=1;align=center;verticalAlign=middle;resizable=0;points=[];fontSize=15;fontFamily=Helvetica;fontColor=#FFFFFF;" vertex="1" connectable="0" parent="26">
                    <mxGeometry x="-0.6485" relative="1" as="geometry">
                        <mxPoint as="offset"/>
                    </mxGeometry>
                </mxCell>
                <mxCell id="16" value="&lt;font color=&quot;#ffffff&quot; style=&quot;font-size: 15px;&quot;&gt;check_i&lt;/font&gt;" style="ellipse;whiteSpace=wrap;html=1;" vertex="1" parent="1">
                    <mxGeometry x="507.5" y="640" width="175" height="105" as="geometry"/>
                </mxCell>
                <mxCell id="29" value="" style="group" vertex="1" connectable="0" parent="1">
                    <mxGeometry x="507.5" y="840" width="252.5" height="130" as="geometry"/>
                </mxCell>
                <mxCell id="25" value="&lt;font color=&quot;#ffffff&quot; style=&quot;font-size: 15px;&quot;&gt;done&lt;/font&gt;" style="ellipse;whiteSpace=wrap;html=1;" vertex="1" parent="29">
                    <mxGeometry width="175" height="105" as="geometry"/>
                </mxCell>
                <mxCell id="28" value="&lt;font color=&quot;#66b2ff&quot; face=&quot;Courier New&quot; style=&quot;font-size: 15px;&quot;&gt;&lt;b&gt;done := '1'&lt;br&gt;&lt;/b&gt;&lt;/font&gt;" style="text;html=1;strokeColor=none;fillColor=none;align=left;verticalAlign=middle;whiteSpace=wrap;rounded=0;" vertex="1" parent="29">
                    <mxGeometry x="132.5" y="100" width="120" height="30" as="geometry"/>
                </mxCell>
                <mxCell id="32" style="edgeStyle=orthogonalEdgeStyle;html=1;fontFamily=Helvetica;fontSize=15;fontColor=#FFFFFF;curved=1;" edge="1" parent="29" source="25" target="25">
                    <mxGeometry relative="1" as="geometry">
                        <Array as="points">
                            <mxPoint x="-67" y="90"/>
                        </Array>
                    </mxGeometry>
                </mxCell>
                <mxCell id="30" value="" style="group" vertex="1" connectable="0" parent="1">
                    <mxGeometry x="507.5" y="450" width="232.5" height="135" as="geometry"/>
                </mxCell>
                <mxCell id="13" value="&lt;font color=&quot;#ffffff&quot; style=&quot;font-size: 15px;&quot;&gt;incr_i&lt;/font&gt;" style="ellipse;whiteSpace=wrap;html=1;" vertex="1" parent="30">
                    <mxGeometry width="175" height="105" as="geometry"/>
                </mxCell>
                <mxCell id="15" value="&lt;font color=&quot;#66b2ff&quot; face=&quot;Courier New&quot; style=&quot;font-size: 15px;&quot;&gt;&lt;b&gt;i := i + 1&lt;br&gt;&lt;/b&gt;&lt;/font&gt;" style="text;html=1;strokeColor=none;fillColor=none;align=left;verticalAlign=middle;whiteSpace=wrap;rounded=0;" vertex="1" parent="30">
                    <mxGeometry x="132.5" y="105" width="100" height="30" as="geometry"/>
                </mxCell>
                <mxCell id="31" value="" style="group" vertex="1" connectable="0" parent="1">
                    <mxGeometry x="400" y="50" width="425" height="140" as="geometry"/>
                </mxCell>
                <mxCell id="5" value="&lt;font color=&quot;#ffffff&quot; style=&quot;font-size: 15px;&quot;&gt;write_random_number&lt;/font&gt;" style="ellipse;whiteSpace=wrap;html=1;" vertex="1" parent="31">
                    <mxGeometry width="160" height="100" as="geometry"/>
                </mxCell>
                <mxCell id="7" value="&lt;font color=&quot;#66b2ff&quot; face=&quot;Courier New&quot; style=&quot;font-size: 15px;&quot;&gt;&lt;b&gt;write_submodule.start := '1'&lt;br&gt;write_submodule.addr := i&lt;br&gt;write_Submodule.data := rnd&lt;br&gt;&lt;/b&gt;&lt;/font&gt;" style="text;html=1;strokeColor=none;fillColor=none;align=left;verticalAlign=middle;whiteSpace=wrap;rounded=0;" vertex="1" parent="31">
                    <mxGeometry x="160" y="70" width="265" height="70" as="geometry"/>
                </mxCell>
            </root>
        </mxGraphModel>
    </diagram>
</mxfile>